<svg xmlns="http://www.w3.org/2000/svg" width="900" height="708" viewBox="0 0 900 708">
  <defs>
    <filter id="glow" x="-20%" y="-20%" width="140%" height="140%">
      <feGaussianBlur in="SourceGraphic" stdDeviation="2.5" result="blur"/>
      <feMerge>
        <feMergeNode in="blur"/>
        <feMergeNode in="SourceGraphic"/>
      </feMerge>
    </filter>
    <pattern id="scanlines" width="100%" height="4" patternUnits="userSpaceOnUse">
      <line x1="0" y1="0" x2="900" y2="0"
            stroke="#000" stroke-width="1" opacity="0.08"/>
    </pattern>
  </defs>
  <rect x="1" y="1" rx="12" ry="12" width="898" height="706" fill="#000000" stroke="#003300" stroke-width="1"/>
  <g filter="url(#glow)">
    <text x="28" y="42" fill="#39FF14" font-family="JetBrains Mono, Cascadia Code, Fira Code, Consolas, monospace" font-size="14">root@dattanirjhar:~# grep -r "skills" /stack</text>
    <text x="28" y="98" fill="#005F00" font-family="JetBrains Mono, Cascadia Code, Fira Code, Consolas, monospace" font-size="14"># LANGUAGES &amp; FRAMEWORKS</text>
    <text x="28" y="126" fill="#008F11" font-family="JetBrains Mono, Cascadia Code, Fira Code, Consolas, monospace" font-size="14">Python        </text>
    <rect x="153.60000000000002" y="117" width="670.4" height="10" rx="4" fill="#001100"/>
    <rect x="153.60000000000002" y="117" width="616.8" height="10" rx="4" fill="#00FF41" opacity="0.85"/>
    <text x="832.0" y="126" fill="#005F00" font-family="JetBrains Mono, Cascadia Code, Fira Code, Consolas, monospace" font-size="13">92%</text>
    <text x="28" y="154" fill="#008F11" font-family="JetBrains Mono, Cascadia Code, Fira Code, Consolas, monospace" font-size="14">Bash          </text>
    <rect x="153.60000000000002" y="145" width="670.4" height="10" rx="4" fill="#001100"/>
    <rect x="153.60000000000002" y="145" width="549.7" height="10" rx="4" fill="#00FF41" opacity="0.85"/>
    <text x="832.0" y="154" fill="#005F00" font-family="JetBrains Mono, Cascadia Code, Fira Code, Consolas, monospace" font-size="13">82%</text>
    <text x="28" y="182" fill="#008F11" font-family="JetBrains Mono, Cascadia Code, Fira Code, Consolas, monospace" font-size="14">JavaScript    </text>
    <rect x="153.60000000000002" y="173" width="670.4" height="10" rx="4" fill="#001100"/>
    <rect x="153.60000000000002" y="173" width="502.8" height="10" rx="4" fill="#00FF41" opacity="0.85"/>
    <text x="832.0" y="182" fill="#005F00" font-family="JetBrains Mono, Cascadia Code, Fira Code, Consolas, monospace" font-size="13">75%</text>
    <text x="28" y="210" fill="#008F11" font-family="JetBrains Mono, Cascadia Code, Fira Code, Consolas, monospace" font-size="14">React         </text>
    <rect x="153.60000000000002" y="201" width="670.4" height="10" rx="4" fill="#001100"/>
    <rect x="153.60000000000002" y="201" width="455.9" height="10" rx="4" fill="#00FF41" opacity="0.85"/>
    <text x="832.0" y="210" fill="#005F00" font-family="JetBrains Mono, Cascadia Code, Fira Code, Consolas, monospace" font-size="13">68%</text>
    <text x="28" y="238" fill="#008F11" font-family="JetBrains Mono, Cascadia Code, Fira Code, Consolas, monospace" font-size="14">Node.js       </text>
    <rect x="153.60000000000002" y="229" width="670.4" height="10" rx="4" fill="#001100"/>
    <rect x="153.60000000000002" y="229" width="469.3" height="10" rx="4" fill="#00FF41" opacity="0.85"/>
    <text x="832.0" y="238" fill="#005F00" font-family="JetBrains Mono, Cascadia Code, Fira Code, Consolas, monospace" font-size="13">70%</text>
    <text x="28" y="266" fill="#008F11" font-family="JetBrains Mono, Cascadia Code, Fira Code, Consolas, monospace" font-size="14">MySQL         </text>
    <rect x="153.60000000000002" y="257" width="670.4" height="10" rx="4" fill="#001100"/>
    <rect x="153.60000000000002" y="257" width="482.7" height="10" rx="4" fill="#00FF41" opacity="0.85"/>
    <text x="832.0" y="266" fill="#005F00" font-family="JetBrains Mono, Cascadia Code, Fira Code, Consolas, monospace" font-size="13">72%</text>
    <text x="28" y="322" fill="#005F00" font-family="JetBrains Mono, Cascadia Code, Fira Code, Consolas, monospace" font-size="14"># AI / ML STACK</text>
    <text x="28" y="350" fill="#008F11" font-family="JetBrains Mono, Cascadia Code, Fira Code, Consolas, monospace" font-size="14">TensorFlow    </text>
    <rect x="153.60000000000002" y="341" width="670.4" height="10" rx="4" fill="#001100"/>
    <rect x="153.60000000000002" y="341" width="590.0" height="10" rx="4" fill="#00FF41" opacity="0.85"/>
    <text x="832.0" y="350" fill="#005F00" font-family="JetBrains Mono, Cascadia Code, Fira Code, Consolas, monospace" font-size="13">88%</text>
    <text x="28" y="378" fill="#008F11" font-family="JetBrains Mono, Cascadia Code, Fira Code, Consolas, monospace" font-size="14">Keras         </text>
    <rect x="153.60000000000002" y="369" width="670.4" height="10" rx="4" fill="#001100"/>
    <rect x="153.60000000000002" y="369" width="549.7" height="10" rx="4" fill="#00FF41" opacity="0.85"/>
    <text x="832.0" y="378" fill="#005F00" font-family="JetBrains Mono, Cascadia Code, Fira Code, Consolas, monospace" font-size="13">82%</text>
    <text x="28" y="406" fill="#008F11" font-family="JetBrains Mono, Cascadia Code, Fira Code, Consolas, monospace" font-size="14">scikit-learn  </text>
    <rect x="153.60000000000002" y="397" width="670.4" height="10" rx="4" fill="#001100"/>
    <rect x="153.60000000000002" y="397" width="569.8" height="10" rx="4" fill="#00FF41" opacity="0.85"/>
    <text x="832.0" y="406" fill="#005F00" font-family="JetBrains Mono, Cascadia Code, Fira Code, Consolas, monospace" font-size="13">85%</text>
    <text x="28" y="434" fill="#008F11" font-family="JetBrains Mono, Cascadia Code, Fira Code, Consolas, monospace" font-size="14">Pandas        </text>
    <rect x="153.60000000000002" y="425" width="670.4" height="10" rx="4" fill="#001100"/>
    <rect x="153.60000000000002" y="425" width="603.4" height="10" rx="4" fill="#00FF41" opacity="0.85"/>
    <text x="832.0" y="434" fill="#005F00" font-family="JetBrains Mono, Cascadia Code, Fira Code, Consolas, monospace" font-size="13">90%</text>
    <text x="28" y="462" fill="#008F11" font-family="JetBrains Mono, Cascadia Code, Fira Code, Consolas, monospace" font-size="14">NumPy         </text>
    <rect x="153.60000000000002" y="453" width="670.4" height="10" rx="4" fill="#001100"/>
    <rect x="153.60000000000002" y="453" width="616.8" height="10" rx="4" fill="#00FF41" opacity="0.85"/>
    <text x="832.0" y="462" fill="#005F00" font-family="JetBrains Mono, Cascadia Code, Fira Code, Consolas, monospace" font-size="13">92%</text>
    <text x="28" y="518" fill="#005F00" font-family="JetBrains Mono, Cascadia Code, Fira Code, Consolas, monospace" font-size="14"># SECURITY &amp; INFRASTRUCTURE</text>
    <text x="28" y="546" fill="#008F11" font-family="JetBrains Mono, Cascadia Code, Fira Code, Consolas, monospace" font-size="14">Nmap          </text>
    <rect x="153.60000000000002" y="537" width="670.4" height="10" rx="4" fill="#001100"/>
    <rect x="153.60000000000002" y="537" width="630.2" height="10" rx="4" fill="#00FF41" opacity="0.85"/>
    <text x="832.0" y="546" fill="#005F00" font-family="JetBrains Mono, Cascadia Code, Fira Code, Consolas, monospace" font-size="13">94%</text>
    <text x="28" y="574" fill="#008F11" font-family="JetBrains Mono, Cascadia Code, Fira Code, Consolas, monospace" font-size="14">Wireshark     </text>
    <rect x="153.60000000000002" y="565" width="670.4" height="10" rx="4" fill="#001100"/>
    <rect x="153.60000000000002" y="565" width="590.0" height="10" rx="4" fill="#00FF41" opacity="0.85"/>
    <text x="832.0" y="574" fill="#005F00" font-family="JetBrains Mono, Cascadia Code, Fira Code, Consolas, monospace" font-size="13">88%</text>
    <text x="28" y="602" fill="#008F11" font-family="JetBrains Mono, Cascadia Code, Fira Code, Consolas, monospace" font-size="14">Burp Suite    </text>
    <rect x="153.60000000000002" y="593" width="670.4" height="10" rx="4" fill="#001100"/>
    <rect x="153.60000000000002" y="593" width="549.7" height="10" rx="4" fill="#00FF41" opacity="0.85"/>
    <text x="832.0" y="602" fill="#005F00" font-family="JetBrains Mono, Cascadia Code, Fira Code, Consolas, monospace" font-size="13">82%</text>
    <text x="28" y="630" fill="#008F11" font-family="JetBrains Mono, Cascadia Code, Fira Code, Consolas, monospace" font-size="14">Linux         </text>
    <rect x="153.60000000000002" y="621" width="670.4" height="10" rx="4" fill="#001100"/>
    <rect x="153.60000000000002" y="621" width="616.8" height="10" rx="4" fill="#00FF41" opacity="0.85"/>
    <text x="832.0" y="630" fill="#005F00" font-family="JetBrains Mono, Cascadia Code, Fira Code, Consolas, monospace" font-size="13">92%</text>
    <text x="28" y="658" fill="#008F11" font-family="JetBrains Mono, Cascadia Code, Fira Code, Consolas, monospace" font-size="14">Docker        </text>
    <rect x="153.60000000000002" y="649" width="670.4" height="10" rx="4" fill="#001100"/>
    <rect x="153.60000000000002" y="649" width="522.9" height="10" rx="4" fill="#00FF41" opacity="0.85"/>
    <text x="832.0" y="658" fill="#005F00" font-family="JetBrains Mono, Cascadia Code, Fira Code, Consolas, monospace" font-size="13">78%</text>
  </g>
  <rect width="900" height="708"
        fill="url(#scanlines)" pointer-events="none"/>
  <rect x="866.0" y="645"
        width="9" height="16"
        fill="#39FF14">
    <animate attributeName="opacity"
             values="1;1;0;0" dur="1.2s"
             repeatCount="indefinite"/>
  </rect>
</svg>